PathFileType	4	(X/Y/Z)	C:/Users/opensim2020/Desktop/walking_exp_matlab/subject06_walking19_straight_02.trc	
DataRate	CameraRate	NumFrames	NumMarkers	Units	OrigDataRate	OrigDataStartFrame	OrigNumFrames	
100.00	100.00	7	49	mm	100.00	2400	332	
Frame#	Time	LFHD			RFHD			LBHD			RBHD			C7			T10			CLAV			STRN			RBAK			LSHO			LUPA			LELB			LFRM			LWRA			LWRB			LFIN			RSHO			RUPA			RELB			RFRM			RWRA			RWRB			RFIN			LASI			RASI			LPSI			RPSI			LTHI			LKNE			LTIB			LANK			LHEE			LTOE			RTHI			RKNE			RTIB			RANK			RHEE			RTOE			*39			*40			*41			*42			*43			*44			*45			*46			*47			*48			
		X1	Y1	Z1	X2	Y2	Z2	X3	Y3	Z3	X4	Y4	Z4	X5	Y5	Z5	X6	Y6	Z6	X7	Y7	Z7	X8	Y8	Z8	X9	Y9	Z9	X10	Y10	Z10	X11	Y11	Z11	X12	Y12	Z12	X13	Y13	Z13	X14	Y14	Z14	X15	Y15	Z15	X16	Y16	Z16	X17	Y17	Z17	X18	Y18	Z18	X19	Y19	Z19	X20	Y20	Z20	X21	Y21	Z21	X22	Y22	Z22	X23	Y23	Z23	X24	Y24	Z24	X25	Y25	Z25	X26	Y26	Z26	X27	Y27	Z27	X28	Y28	Z28	X29	Y29	Z29	X30	Y30	Z30	X31	Y31	Z31	X32	Y32	Z32	X33	Y33	Z33	X34	Y34	Z34	X35	Y35	Z35	X36	Y36	Z36	X37	Y37	Z37	X38	Y38	Z38	X39	Y39	Z39	X40	Y40	Z40	X41	Y41	Z41	X42	Y42	Z42	X43	Y43	Z43	X44	Y44	Z44	X45	Y45	Z45	X46	Y46	Z46	X47	Y47	Z47	X48	Y48	Z48	X49	Y49	Z49	

208	2.070	-950.86426	49.04837	1666.46924	-1081.88696	36.48686	1654.26001	-960.57507	173.76724	1595.26196	-1089.42664	160.03992	1588.58301	-1005.80890	155.47411	1445.65356	-1005.59424	178.40826	1117.11646	-1003.42053	41.10113	1374.72314	-987.97113	-4.54910	1200.78040	-1079.10046	218.78960	1270.66406	-843.47363	92.26344	1411.34192	-767.03064	54.41280	1213.83411	-753.83691	26.46806	1103.95313	-746.99951	-68.18274	985.98041	-806.18439	-172.89723	924.72601	-766.25189	-129.96904	885.08240	-777.09387	-207.63341	840.32043	-1166.26465	85.13261	1396.63123	-1248.08728	125.79175	1197.30505	-1257.65295	122.05404	1075.19043	-1275.23438	121.38714	954.81201	-1245.24207	82.78336	807.55847	-1287.11658	136.50742	817.45996	-1289.02100	111.84003	736.08813	-886.89124	8.24822	955.08386	-1106.02979	-12.19381	969.55981	-927.72253	161.24321	987.15259	-1094.57813	141.26056	993.93365	-846.89917	119.82306	641.24878	-870.13354	146.73355	478.75986	-887.75220	301.59818	271.64230	-936.46808	389.28513	125.00776	-983.88043	428.79825	131.30321	-936.66125	275.76132	34.08271	-1173.06421	0.00285	638.94373	-1141.69763	-24.88253	518.05688	-1146.30432	-28.35425	251.90775	-1100.76050	-47.49463	65.96242	-1056.07019	-11.38126	39.56008	-1089.52039	-203.21082	43.04142	-1019.29480	147.94852	1690.89795																											 
209	2.080	-952.70160	42.65483	1667.66602	-1083.72327	30.01089	1655.19910	-962.49304	167.43370	1596.31787	-1091.54675	153.59300	1589.31580	-1007.27563	148.70827	1446.53015	-1007.02197	171.21266	1118.02332	-1004.89941	34.23309	1375.87976	-989.39679	-11.82335	1201.95642	-1080.66968	211.59377	1271.52014	-845.16693	85.31884	1412.74634	-768.31329	47.18724	1215.46008	-755.13989	20.40835	1105.28613	-747.67792	-73.51991	986.73425	-806.71606	-177.89128	924.53741	-766.19580	-134.72462	885.58716	-777.18860	-212.21494	840.00244	-1167.66199	78.37789	1397.76746	-1249.49524	117.92839	1198.29932	-1258.82727	113.61403	1076.14001	-1276.26001	112.18448	955.73517	-1245.99426	72.83623	808.64313	-1287.81787	126.22465	818.23956	-1289.77039	101.00786	737.09851	-888.30701	1.34028	956.17963	-1107.15137	-19.42181	970.11560	-929.27563	154.18935	987.98145	-1096.05786	134.03148	994.96362	-847.28259	110.92396	641.70038	-870.06940	136.26488	478.85452	-888.72546	294.51709	274.97589	-937.24689	384.92804	129.84848	-985.10309	423.71268	137.45232	-936.95886	275.01965	34.42343	-1173.30261	-2.62342	638.35443	-1142.83118	-28.71049	518.08728	-1146.48462	-29.63952	251.91280	-1100.87720	-47.89902	65.99284	-1055.97888	-11.57251	39.70509	-1089.30286	-203.57620	42.12798	-1021.33643	141.58528	1691.88208																											 
210	2.090	-954.49493	36.43530	1668.68835	-1085.44714	23.52252	1656.08264	-964.31866	161.00264	1597.14380	-1092.99585	146.77127	1590.06323	-1008.76917	141.87872	1447.23804	-1008.56165	164.16112	1118.84363	-1006.37738	27.45390	1376.87000	-990.80743	-19.00872	1202.99438	-1082.23816	204.47888	1272.21423	-846.76501	78.34575	1413.94934	-769.60175	40.03304	1216.90503	-756.35596	14.27411	1106.46973	-748.28589	-78.86781	987.26404	-807.21442	-182.69626	923.98572	-766.62634	-139.70148	885.74207	-777.30487	-216.74512	839.48322	-1169.06152	71.56232	1398.80554	-1250.98718	110.08435	1199.16064	-1260.05322	105.24919	1076.95325	-1277.30200	102.91718	956.55829	-1246.81055	62.73856	809.78204	-1288.53247	115.87753	818.88324	-1290.54138	89.97155	738.02966	-889.67340	-5.46648	957.21979	-1108.34314	-26.42056	970.59491	-930.77094	147.32620	988.79529	-1097.73987	127.58508	996.20850	-847.55170	101.97053	642.17834	-869.77350	125.60676	478.96100	-889.42987	287.37097	278.29526	-938.11194	379.96796	134.78944	-986.46088	417.98666	143.59282	-937.55188	274.36981	34.55140	-1174.49512	-7.94997	638.91357	-1143.98950	-32.53259	517.97522	-1146.76758	-31.17054	251.79048	-1100.53528	-48.28597	65.85411	-1055.89893	-11.78051	39.85246	-1089.18970	-203.94746	41.23116	-1023.23901	135.21498	1692.68225																											 
211	2.100	-956.16193	30.09219	1669.67920	-1087.12512	17.20795	1656.92896	-965.92487	154.57245	1597.84790	-1094.96729	140.53175	1590.68713	-1010.18304	135.15138	1447.88513	-1010.22296	157.41046	1119.63586	-1007.80585	20.50641	1377.75122	-992.24579	-26.11065	1203.84973	-1083.83386	197.36159	1272.75220	-848.29614	71.41044	1414.90771	-770.90582	33.02543	1218.06250	-757.32446	7.93191	1107.69275	-748.94653	-84.19797	987.69000	-807.69055	-187.59624	923.39661	-766.66113	-144.38885	885.76929	-777.39600	-221.13609	838.79797	-1170.44446	64.82346	1399.68982	-1252.51099	102.82964	1199.97107	-1261.35205	96.88923	1077.66650	-1278.37292	93.60791	957.27789	-1247.69324	52.18755	810.90552	-1289.24292	105.45444	819.47308	-1291.39221	78.92791	738.86761	-891.09808	-12.22786	958.19403	-1109.57959	-33.38995	971.09814	-932.21545	140.68878	989.49805	-1099.12146	120.65350	996.93976	-847.73120	93.08165	642.60608	-869.22101	114.79048	479.06699	-890.05469	279.77112	281.52289	-939.08618	374.50989	139.77713	-987.97058	411.44940	149.70093	-937.97485	273.18320	34.98361	-1175.42249	-13.12970	639.17834	-1145.13782	-36.31115	517.89856	-1147.26672	-32.95982	251.60683	-1100.43506	-48.72255	65.77618	-1055.80908	-12.01034	40.00946	-1089.14429	-204.29778	40.40549	-1024.98865	128.94502	1693.36523																											 
212	2.110	-957.75488	23.90363	1670.42395	-1088.73779	10.96491	1657.71826	-967.48114	148.15283	1598.38293	-1096.25903	133.96413	1591.20313	-1011.68396	128.39377	1448.50598	-1011.63574	150.32504	1120.10852	-1009.24902	13.65165	1378.51831	-993.68372	-33.06810	1204.57654	-1085.46167	190.45833	1273.19971	-849.78674	64.48397	1415.66187	-772.19965	26.24936	1218.95386	-758.65552	2.10748	1108.49915	-749.50427	-89.44646	987.97095	-808.11316	-192.39183	922.58722	-766.51868	-149.02580	885.48077	-777.46912	-225.39902	837.91467	-1171.85620	58.01185	1400.45081	-1253.68140	95.09473	1200.44019	-1262.67993	88.59755	1078.24768	-1279.47986	84.27806	957.86060	-1248.56323	41.31044	812.10632	-1290.03088	94.94521	819.95758	-1291.89526	67.51711	739.54907	-892.50964	-18.71979	959.10114	-1110.76721	-40.29359	971.59387	-933.59564	134.10223	989.98975	-1100.42651	113.95808	997.57391	-847.84692	84.31699	642.95081	-868.55548	103.78786	479.11688	-890.37323	271.74457	284.70996	-940.00116	368.59827	144.73810	-989.42761	404.32996	155.71367	-938.38586	271.79501	35.51408	-1176.15454	-18.03134	639.48401	-1146.31836	-40.05549	517.84595	-1147.71472	-34.80046	251.44893	-1100.37842	-49.18119	65.68861	-1055.80298	-12.19704	40.16288	-1089.11792	-204.66016	39.63764	-1026.55835	122.80190	1693.92664																											 
213	2.120	-959.27734	17.69539	1671.10815	-1090.21667	4.78254	1658.41406	-968.90009	141.83519	1598.76416	-1097.58484	127.54890	1591.51953	-1013.13074	121.79955	1449.07715	-1013.18994	143.56407	1120.62817	-1010.69238	6.87736	1379.12280	-995.07800	-39.90586	1205.20142	-1087.18237	183.60516	1273.51831	-851.24438	57.64357	1416.22961	-773.51129	19.80065	1219.55176	-759.69440	-4.16902	1108.93457	-750.13605	-94.66749	987.92157	-808.55963	-197.05293	921.55640	-766.84070	-153.50682	885.13904	-777.46301	-229.64174	836.91229	-1173.28955	51.23125	1401.09619	-1254.94617	87.62584	1200.81677	-1264.01233	80.19175	1078.68030	-1280.60376	74.85812	958.33472	-1249.49048	30.40165	813.22705	-1290.76392	84.38017	820.28308	-1292.70935	56.22337	740.21039	-893.80164	-25.19056	959.97791	-1112.03857	-46.98110	972.00067	-934.77454	127.79808	990.41901	-1101.60461	107.45168	998.06580	-847.95776	75.43305	643.14301	-867.82654	92.63380	479.11969	-890.82343	263.26816	287.77716	-940.90363	362.27689	149.53926	-990.79132	396.73981	161.67758	-938.80823	270.24771	36.19923	-1176.88293	-23.14903	639.76239	-1147.38196	-43.89180	517.80188	-1148.29785	-36.81430	251.33614	-1100.37866	-49.64779	65.61588	-1055.81726	-12.38499	40.27097	-1089.18420	-204.93414	38.89649	-1028.05774	116.67136	1694.37280																											 
214	2.130	-960.69714	11.45645	1671.68396	-1091.64099	-1.37606	1658.99341	-970.39850	135.24887	1598.99744	-1098.93860	121.21991	1591.81824	-1014.52179	114.95135	1449.54700	-1014.60529	137.13797	1121.11292	-1012.04816	0.19128	1379.59937	-996.47925	-46.48544	1205.58374	-1088.79736	176.77020	1273.83936	-852.60883	50.90477	1416.56335	-774.77136	13.57082	1219.82153	-760.40375	-10.07561	1109.48462	-750.76984	-99.77559	987.62085	-809.17914	-201.34517	920.22772	-766.49249	-158.01617	884.39911	-777.40753	-233.73708	835.72137	-1174.68359	44.41330	1401.60815	-1256.51025	79.76450	1201.14661	-1265.36230	71.81770	1079.01099	-1281.74231	65.37997	958.67828	-1250.53442	20.57896	813.57050	-1291.56445	73.72175	820.51788	-1293.17700	44.64703	740.71405	-895.03589	-31.54750	960.60577	-1113.32434	-53.31973	972.10638	-935.88812	121.43221	990.64258	-1102.68018	101.09132	998.47717	-848.01489	66.47918	643.29205	-867.12616	81.33410	478.99774	-891.27899	254.52351	290.88309	-941.57880	355.34213	154.18233	-991.92395	388.77646	167.47801	-939.14343	268.23065	37.14396	-1177.62732	-28.04992	640.00885	-1148.40942	-47.69268	517.70270	-1148.98584	-38.83141	251.23705	-1100.41870	-49.96511	65.46819	-1055.92480	-12.54217	40.42549	-1089.09497	-205.20901	38.25633	-1029.38171	110.59396	1694.69092																											 
